<?xml version="1.0" encoding="iso-8859-1"?>
<!-- Generator: Adobe Illustrator 19.0.0, SVG Export Plug-In . SVG Version: 6.00 Build 0)  -->
<svg version="1.1" id="Capa_1" xmlns="http://www.w3.org/2000/svg" xmlns:xlink="http://www.w3.org/1999/xlink" x="0px" y="0px"
	 viewBox="0 0 512.001 512.001" style="enable-background:new 0 0 512.001 512.001;" xml:space="preserve">
<path style="fill:#B58058;" d="M141.119,86.019l366.239,366.239c6.19,6.19,6.19,16.167,0.001,22.358l-32.754,32.754
	c-6.13,6.13-16.167,6.189-22.358-0.001L86.009,141.13c-6.19-6.19-6.131-16.227-0.001-22.358l32.754-32.754
	C124.951,79.829,134.928,79.829,141.119,86.019z"/>
<path style="fill:#8E6047;" d="M103.737,101.043L492.334,489.64l-17.729,17.729c-6.13,6.13-16.167,6.189-22.358-0.001L86.009,141.13
	c-6.19-6.19-6.131-16.227-0.001-22.358L103.737,101.043z"/>
<path style="fill:#94A6AD;" d="M442.571,12.94c-67.731,17.008-147.841,61.9-223.985,128.551l14.844,14.844
	c7.572,7.572,7.572,19.712,0,27.284l-49.821,49.821c-7.513,7.513-19.712,7.572-27.284,0l-14.844-14.844
	C74.83,294.741,29.937,374.853,12.929,442.583c-5.769-12.14-9.555-25.662-11.479-40.086
	c-10.396-78.668,35.518-186.606,125.004-276.092C215.88,36.979,323.818-8.935,402.486,1.461
	C416.97,3.324,430.432,7.17,442.571,12.94z"/>
<path style="fill:#858C94;" d="M442.571,12.94c-67.731,17.008-147.841,61.9-223.985,128.551l14.844,14.844
	c7.572,7.572,7.572,19.712,0,27.284l-49.821,49.821c-7.513,7.513-19.712,7.572-27.284,0l-14.844-14.844
	C74.83,294.741,29.937,374.853,12.929,442.583c-5.769-12.14-9.555-25.662-11.479-40.086
	c19.292-76.024,73.38-166.172,154.152-246.944C236.314,74.841,326.462,20.753,402.486,1.461
	C416.97,3.324,430.432,7.17,442.571,12.94z"/>
<g>
</g>
<g>
</g>
<g>
</g>
<g>
</g>
<g>
</g>
<g>
</g>
<g>
</g>
<g>
</g>
<g>
</g>
<g>
</g>
<g>
</g>
<g>
</g>
<g>
</g>
<g>
</g>
<g>
</g>
</svg>
