<svg height="512pt" viewBox="0 -49 512.00003 512" width="512pt" xmlns="http://www.w3.org/2000/svg"><path d="m477.828125 414.898438h-443.65625c-9.308594.019531-17.035156-7.191407-17.65625-16.484376l-16.515625-248.34375 264.828125-26.484374 247.171875 26.484374-16.558594 248.34375c-.621094 9.273438-8.320312 16.480469-17.613281 16.484376zm0 0" fill="#f29c1f"/><path d="m454.796875 212.480469-2.914063 43.519531h-391.765624l-2.914063-43.519531c-.171875-2.445313.683594-4.855469 2.355469-6.644531 1.675781-1.792969 4.019531-2.808594 6.472656-2.800782h379.9375c2.453125-.007812 4.796875 1.007813 6.472656 2.800782 1.671875 1.789062 2.527344 4.199218 2.355469 6.644531zm0 0" fill="#af8066"/><path d="m451.882812 256-3.53125 52.964844-3 44.757812c-.324218 4.632813-4.183593 8.21875-8.828124 8.207032h-361.046876c-4.644531.011718-8.503906-3.574219-8.828124-8.207032l-3-44.757812-3.53125-52.964844 195.882812-17.65625zm0 0" fill="#af8066"/><path d="m451.882812 256-3.53125 52.964844h-384.703124l-3.53125-52.964844zm0 0" fill="#805333"/><path d="m203.035156 141.242188h105.929688v79.449218c0 29.25-23.710938 52.964844-52.964844 52.964844s-52.964844-23.714844-52.964844-52.964844zm0 0" fill="#f0c419"/><path d="m273.65625 203.035156c0 9.75-7.90625 17.65625-17.65625 17.65625s-17.65625-7.90625-17.65625-17.65625 7.90625-17.65625 17.65625-17.65625 17.65625 7.90625 17.65625 17.65625zm0 0" fill="#2c2f38"/><path d="m256 247.171875c-4.875 0-8.828125-3.953125-8.828125-8.828125v-17.652344c0-4.875 3.953125-8.828125 8.828125-8.828125s8.828125 3.953125 8.828125 8.828125v17.652344c0 4.875-3.953125 8.828125-8.828125 8.828125zm0 0" fill="#2c2f38"/><path d="m150.070312 0c-31.425781 0-42.375 13.59375-61.792968 35.3125-13.066406 14.5625-5.472656 32.75-8.828125 52.964844-.972657 5.738281-17.65625 11.652344-17.65625 17.652344l-17.65625 44.140624h-44.136719v-52.964843c-.015625-25.757813 10.210938-50.464844 28.425781-68.679688 18.214844-18.214843 42.921875-28.441406 68.675781-28.425781zm0 0" fill="#f0c419"/><path d="m512 97.105469v52.964843h-44.136719l-17.65625-44.140624c0-6-7.855469-11.914063-8.828125-17.652344-3.355468-20.214844-4.589844-38.402344-17.65625-52.964844-19.417968-21.71875-30.367187-35.3125-61.792968-35.3125h52.96875c25.757812-.015625 50.460937 10.210938 68.675781 28.425781 18.214843 18.214844 28.441406 42.921875 28.425781 68.679688zm0 0" fill="#f0c419"/><path d="m467.863281 105.929688v44.140624h-423.726562v-44.140624c.007812-5.914063.507812-11.820313 1.5-17.652344l210.363281-26.484375 210.363281 26.484375c.992188 5.832031 1.492188 11.738281 1.5 17.652344zm0 0" fill="#805333"/><path d="m440.9375 35.3125-184.9375 8.824219-184.9375-8.824219c20.078125-22.519531 48.835938-35.3710938 79.007812-35.3125h211.859376c30.171874-.0585938 58.929687 12.792969 79.007812 35.3125zm0 0" fill="#805333"/><path d="m466.363281 88.277344h-420.726562c3.253906-19.71875 12.074219-38.097656 25.425781-52.964844h369.875c13.351562 14.867188 22.171875 33.246094 25.425781 52.964844zm0 0" fill="#af8066"/></svg>