<?xml version="1.0" encoding="iso-8859-1"?>
<!-- Generator: Adobe Illustrator 19.0.0, SVG Export Plug-In . SVG Version: 6.00 Build 0)  -->
<svg version="1.1" id="Capa_1" xmlns="http://www.w3.org/2000/svg" xmlns:xlink="http://www.w3.org/1999/xlink" x="0px" y="0px"
	 viewBox="0 0 512 512" style="enable-background:new 0 0 512 512;" xml:space="preserve">
<path style="fill:#FEDB41;" d="M257,0C116.302,0,0,114.3,0,255s116.302,257,257,257s255-116.3,255-257S397.698,0,257,0z"/>
<path style="fill:#FFCC33;" d="M512,255c0,140.7-114.302,257-255,257V0C397.698,0,512,114.3,512,255z"/>
<path style="fill:#FEA832;" d="M257,60C149.598,60,60,147.599,60,255s89.598,197,197,197s195-89.599,195-197S364.402,60,257,60z"/>
<path style="fill:#FE9923;" d="M452,255c0,107.401-87.598,197-195,197V60C364.402,60,452,147.599,452,255z"/>
<path style="fill:#FEDB41;" d="M287,240h-15v-60h15c8.401,0,15,6.599,15,15c0,19.799,30,19.799,30,0c0-24.901-20.098-45-45-45h-15
	v-15c0-9.901-7.5-15-15-15s-15,5.099-15,15v15h-17c-24.902,0-45,20.099-45,45v30c0,24.901,20.098,45,45,45h17v62h-17
	c-8.401,0-15-6.599-15-15c0-19.799-30-19.799-30,0c0,24.901,20.098,45,45,45h17v15c0,9.901,7.5,15,15,15s15-5.099,15-15v-15h15
	c24.902,0,45-20.099,45-45v-32C332,260.099,311.902,240,287,240z M242,240h-17c-8.401,0-15-6.599-15-15v-30c0-8.401,6.599-15,15-15
	h17V240z M302,317c0,8.401-6.599,15-15,15h-15v-62h15c8.401,0,15,6.599,15,15V317z"/>
<path style="fill:#FFCC33;" d="M287,240h-15v-60h15c8.401,0,15,6.599,15,15c0,19.799,30,19.799,30,0c0-24.901-20.098-45-45-45h-15
	v-15c0-9.901-7.5-15-15-15v272c7.5,0,15-5.099,15-15v-15h15c24.902,0,45-20.099,45-45v-32C332,260.099,311.902,240,287,240z
	 M302,317c0,8.401-6.599,15-15,15h-15v-62h15c8.401,0,15,6.599,15,15V317z"/>
<g>
</g>
<g>
</g>
<g>
</g>
<g>
</g>
<g>
</g>
<g>
</g>
<g>
</g>
<g>
</g>
<g>
</g>
<g>
</g>
<g>
</g>
<g>
</g>
<g>
</g>
<g>
</g>
<g>
</g>
</svg>
